<?xml version="1.0" encoding="UTF-8" standalone="no"?>
<svg
   width="1120"
   height="571"
   viewBox="0 0 1120 571"
   role="img"
   aria-labelledby="title desc"
   version="1.1"
   id="usestakly-dual-black-white-lime-board"
   sodipodi:docname="v1-dual-black-white-lime.svg"
   inkscape:version="1.4.3 (0d15f75, 2025-12-25)"
   xmlns:inkscape="http://www.inkscape.org/namespaces/inkscape"
   xmlns:sodipodi="http://sodipodi.sourceforge.net/DTD/sodipodi-0.dtd"
   xmlns="http://www.w3.org/2000/svg"
   xmlns:svg="http://www.w3.org/2000/svg">
  <sodipodi:namedview
     id="namedview-dual"
     pagecolor="#505050"
     bordercolor="#ffffff"
     borderopacity="1"
     inkscape:showpageshadow="0"
     inkscape:pageopacity="0"
     inkscape:pagecheckerboard="1"
     inkscape:deskcolor="#505050"
     inkscape:current-layer="usestakly-dual-black-white-lime-board" />
  <title id="title">UseStakly black/lime and white/lime logo board</title>
  <desc id="desc">Two identical geometry variants from user-corrected v1.svg: black and lime on the left, white and lime on the right.</desc>
  <defs id="defs-dual" />
  <g id="preview-guides" fill="none">
    <rect id="panel-black-lime" x="0" y="0" width="530" height="511" fill="#505050" />
    <rect id="panel-white-lime" x="590" y="0" width="530" height="511" fill="#505050" />
    <text id="label-black-lime" x="24" y="548" fill="#d9dddf" font-family="Arial, sans-serif" font-size="18">black #101519 + lime #b6ff3c</text>
    <text id="label-white-lime" x="614" y="548" fill="#d9dddf" font-family="Arial, sans-serif" font-size="18">white #ffffff + lime #b6ff3c</text>
  </g>
<g
       id="logo-black-lime"
       fill-rule="evenodd">
      <g
         id="stack-black"
         fill="#101519">
        <path
           id="path6-black"
           d="M 304.29459,104.78999 260.948,80.107 C 259.64933,79.369 258.25333,79 256.76,79 h -2.52 c -1.49333,0 -2.88733,0.372333 -4.182,1.117 L 60.776,188.978 c -1.184,0.68133 -2.202667,1.55533 -3.056,2.622 L 56,193.751 c -0.666667,0.83267 -1,1.78233 -1,2.849 v 1.8 c 0,1.06667 0.32,2.02667 0.96,2.88 l 1.08,1.44 c 0.64,0.85333 1.422667,1.54533 2.348,2.076 L 208,290 215.31499,294.19324 243,273 l 1,-75 -50,-51 23,-23 37,37 z"
           sodipodi:nodetypes="ccssccccssssccccccccc" />
        <path
           id="path7-black"
           d="m 456.32,195.56 c -0.21333,-1.70667 -1.06467,-2.99 -2.554,-3.85 L 303.69606,104.44194 266,198 v 93.25 l -0.63026,4.2227 -50.05475,-1.27946 L 253,315 h 8 L 451.429,205.9 c 1.04733,-0.6 1.99767,-1.32667 2.851,-2.18 l 1.44,-1.44 c 0.85333,-0.85333 1.205,-1.87867 1.055,-3.076 z"
           sodipodi:nodetypes="ccccccccccsscc" />
        <path
           id="path8-black"
           d="m 457,287.6 c 0,-1.06667 -0.32,-2.02667 -0.96,-2.88 l -1.08,-1.44 c -0.64,-0.85333 -1.42433,-1.54233 -2.353,-2.067 L 408,256 h -3 l -139.215,80.392 c -1.85667,1.072 -3.85167,1.71467 -5.985,1.928 l -3.6,0.36 c -2.13333,0.21333 -4.144,-0.18833 -6.032,-1.205 l -63.43131,-34.03439 2.97506,66.53206 57.26925,33.18933 c 2.01267,1.22533 4.19233,1.94467 6.539,2.158 l 3.96,0.36 c 2.34667,0.21333 4.543,-0.26467 6.589,-1.434 L 447.438,299.464 c 1.708,-0.976 3.30867,-2.104 4.802,-3.384 l 3.302,-2.83 c 0.972,-0.83333 1.458,-1.89 1.458,-3.17 z"
           sodipodi:nodetypes="sssccccssccccssccccss" />
        <path
           id="path9-black"
           d="m 457,378.24 c 0,-1.49333 -0.57367,-2.718 -1.721,-3.674 L 452.92,372.6 c -1.28,-1.06667 -2.64467,-2.01133 -4.094,-2.834 L 416.64,351.498 c -1.76,-0.99867 -3.6,-1.818 -5.52,-2.458 l -3.24,-1.08 c -1.92,-0.64 -3.758,-0.45667 -5.514,0.55 l -137.312,78.739 c -2.036,1.16733 -4.22733,1.751 -6.574,1.751 h -3.96 c -2.34667,0 -4.53367,-0.59133 -6.561,-1.774 L 189.83582,393.21318 172.81045,451.32026 251.06,495.881 c 1.29333,0.746 2.68667,1.119 4.18,1.119 h 2.52 c 1.49333,0 2.888,-0.37067 4.184,-1.112 L 452.822,386.674 c 0.78533,-0.44933 1.498,-0.994 2.138,-1.634 l 1.08,-1.08 c 0.64,-0.64 0.96,-1.41267 0.96,-2.318 z"
           sodipodi:nodetypes="scsccssccssccccssccssss" />
        <path
           id="path10-black"
           d="m 57.154,283.846 c -0.769333,0.76933 -1.260667,1.68733 -1.474,2.754 l -0.399,1.997 c -0.187333,0.93533 -0.06767,1.82967 0.359,2.683 l 0.72,1.44 c 0.426667,0.85333 1.054,1.517 1.882,1.991 L 195,373 195.07031,308.53125 110.112,256.634 C 109.37067,256.21133 108.57333,256 107.72,256 h -1.44 c -0.85333,0 -1.653,0.20733 -2.399,0.622 l -42.299,23.499 c -1.054667,0.586 -2.008667,1.30567 -2.862,2.159 z"
           sodipodi:nodetypes="sccssscccssccss" />
        <path
           id="path11-black"
           d="m 57.948,373.849 c -1.298667,0.76733 -2.054667,1.89767 -2.268,3.391 l -0.36,2.52 c -0.213333,1.49333 0.252667,2.731 1.398,3.713 l 3.042,2.607 c 1.493333,1.28 3.094,2.408 4.802,3.384 L 195,464 195.41984,396.35918 193,395 110.298,348.298 c -1.532,-0.86533 -3.15133,-1.08467 -4.858,-0.658 l -2.88,0.72 c -1.70667,0.42667 -3.317333,1.08733 -4.832,1.982 z"
           sodipodi:nodetypes="cssccsccccsscc" />
      </g>
      <g
         id="lime-contact-underlay-black"
         fill="#b6ff3c"
         stroke="#b6ff3c"
         stroke-width="2"
         stroke-linejoin="miter"
         stroke-linecap="butt">
        <path
           id="path12-underlay-black"
           d="m 368,33 -114,128 -37,-37 -23,23 50,51 -1,75 -47.90983,34.92271 L 195,464 225.86864,481.53528 226.05117,324.535 266,295 V 198 L 391,55 Z"
           sodipodi:nodetypes="cccccccccccccc"
           style="stroke-width:0;stroke-dasharray:none" />
      </g>
    </g>
<g
     id="white-lime-board-position"
     transform="translate(590 0)">
    <g
       id="logo-white-lime"
       fill-rule="evenodd">
      <g
         id="stack-white"
         fill="#ffffff">
        <path
           id="path6-white"
           d="M 304.29459,104.78999 260.948,80.107 C 259.64933,79.369 258.25333,79 256.76,79 h -2.52 c -1.49333,0 -2.88733,0.372333 -4.182,1.117 L 60.776,188.978 c -1.184,0.68133 -2.202667,1.55533 -3.056,2.622 L 56,193.751 c -0.666667,0.83267 -1,1.78233 -1,2.849 v 1.8 c 0,1.06667 0.32,2.02667 0.96,2.88 l 1.08,1.44 c 0.64,0.85333 1.422667,1.54533 2.348,2.076 L 208,290 215.31499,294.19324 243,273 l 1,-75 -50,-51 23,-23 37,37 z"
           sodipodi:nodetypes="ccssccccssssccccccccc" />
        <path
           id="path7-white"
           d="m 456.32,195.56 c -0.21333,-1.70667 -1.06467,-2.99 -2.554,-3.85 L 303.69606,104.44194 266,198 v 93.25 l -0.63026,4.2227 -50.05475,-1.27946 L 253,315 h 8 L 451.429,205.9 c 1.04733,-0.6 1.99767,-1.32667 2.851,-2.18 l 1.44,-1.44 c 0.85333,-0.85333 1.205,-1.87867 1.055,-3.076 z"
           sodipodi:nodetypes="ccccccccccsscc" />
        <path
           id="path8-white"
           d="m 457,287.6 c 0,-1.06667 -0.32,-2.02667 -0.96,-2.88 l -1.08,-1.44 c -0.64,-0.85333 -1.42433,-1.54233 -2.353,-2.067 L 408,256 h -3 l -139.215,80.392 c -1.85667,1.072 -3.85167,1.71467 -5.985,1.928 l -3.6,0.36 c -2.13333,0.21333 -4.144,-0.18833 -6.032,-1.205 l -63.43131,-34.03439 2.97506,66.53206 57.26925,33.18933 c 2.01267,1.22533 4.19233,1.94467 6.539,2.158 l 3.96,0.36 c 2.34667,0.21333 4.543,-0.26467 6.589,-1.434 L 447.438,299.464 c 1.708,-0.976 3.30867,-2.104 4.802,-3.384 l 3.302,-2.83 c 0.972,-0.83333 1.458,-1.89 1.458,-3.17 z"
           sodipodi:nodetypes="sssccccssccccssccccss" />
        <path
           id="path9-white"
           d="m 457,378.24 c 0,-1.49333 -0.57367,-2.718 -1.721,-3.674 L 452.92,372.6 c -1.28,-1.06667 -2.64467,-2.01133 -4.094,-2.834 L 416.64,351.498 c -1.76,-0.99867 -3.6,-1.818 -5.52,-2.458 l -3.24,-1.08 c -1.92,-0.64 -3.758,-0.45667 -5.514,0.55 l -137.312,78.739 c -2.036,1.16733 -4.22733,1.751 -6.574,1.751 h -3.96 c -2.34667,0 -4.53367,-0.59133 -6.561,-1.774 L 189.83582,393.21318 172.81045,451.32026 251.06,495.881 c 1.29333,0.746 2.68667,1.119 4.18,1.119 h 2.52 c 1.49333,0 2.888,-0.37067 4.184,-1.112 L 452.822,386.674 c 0.78533,-0.44933 1.498,-0.994 2.138,-1.634 l 1.08,-1.08 c 0.64,-0.64 0.96,-1.41267 0.96,-2.318 z"
           sodipodi:nodetypes="scsccssccssccccssccssss" />
        <path
           id="path10-white"
           d="m 57.154,283.846 c -0.769333,0.76933 -1.260667,1.68733 -1.474,2.754 l -0.399,1.997 c -0.187333,0.93533 -0.06767,1.82967 0.359,2.683 l 0.72,1.44 c 0.426667,0.85333 1.054,1.517 1.882,1.991 L 195,373 195.07031,308.53125 110.112,256.634 C 109.37067,256.21133 108.57333,256 107.72,256 h -1.44 c -0.85333,0 -1.653,0.20733 -2.399,0.622 l -42.299,23.499 c -1.054667,0.586 -2.008667,1.30567 -2.862,2.159 z"
           sodipodi:nodetypes="sccssscccssccss" />
        <path
           id="path11-white"
           d="m 57.948,373.849 c -1.298667,0.76733 -2.054667,1.89767 -2.268,3.391 l -0.36,2.52 c -0.213333,1.49333 0.252667,2.731 1.398,3.713 l 3.042,2.607 c 1.493333,1.28 3.094,2.408 4.802,3.384 L 195,464 195.41984,396.35918 193,395 110.298,348.298 c -1.532,-0.86533 -3.15133,-1.08467 -4.858,-0.658 l -2.88,0.72 c -1.70667,0.42667 -3.317333,1.08733 -4.832,1.982 z"
           sodipodi:nodetypes="cssccsccccsscc" />
      </g>
      <g
         id="lime-contact-underlay-white"
         fill="#b6ff3c"
         stroke="#b6ff3c"
         stroke-width="2"
         stroke-linejoin="miter"
         stroke-linecap="butt">
        <path
           id="path12-underlay-white"
           d="m 368,33 -114,128 -37,-37 -23,23 50,51 -1,75 -47.90983,34.92271 L 195,464 225.86864,481.53528 226.05117,324.535 266,295 V 198 L 391,55 Z"
           sodipodi:nodetypes="cccccccccccccc"
           style="stroke-width:0;stroke-dasharray:none" />
      </g>
    </g>
  </g>
</svg>
