<svg xmlns="http://www.w3.org/2000/svg" width="1200" height="630" viewBox="0 0 1200 630">
  <defs>
    <linearGradient id="og-bg" x1="0" y1="0" x2="1" y2="1">
      <stop offset="0" stop-color="#08090b" />
      <stop offset="0.55" stop-color="#0c0d12" />
      <stop offset="1" stop-color="#101519" />
    </linearGradient>
    <radialGradient id="og-glow" cx="1020" cy="70" r="520" gradientUnits="userSpaceOnUse">
      <stop offset="0" stop-color="#b6ff3c" stop-opacity="0.22" />
      <stop offset="0.45" stop-color="#b6ff3c" stop-opacity="0.06" />
      <stop offset="1" stop-color="#b6ff3c" stop-opacity="0" />
    </radialGradient>
    <linearGradient id="og-stripe" x1="0" y1="0" x2="0" y2="1">
      <stop offset="0" stop-color="#b6ff3c" stop-opacity="0" />
      <stop offset="0.35" stop-color="#b6ff3c" stop-opacity="0.06" />
      <stop offset="1" stop-color="#b6ff3c" stop-opacity="0" />
    </linearGradient>
  </defs>
  <rect width="1200" height="630" fill="url(#og-bg)" />
  <rect width="1200" height="630" fill="url(#og-glow)" />
  <rect x="0" y="0" width="6" height="630" fill="url(#og-stripe)" />
  <g transform="translate(56, 68) scale(0.92)">
    <g fill-rule="evenodd">
      <g fill="#f5f6f7">
        <path
          d="M 304.29459,104.78999 260.948,80.107 C 259.64933,79.369 258.25333,79 256.76,79 h -2.52 c -1.49333,0 -2.88733,0.372333 -4.182,1.117 L 60.776,188.978 c -1.184,0.68133 -2.202667,1.55533 -3.056,2.622 L 56,193.751 c -0.666667,0.83267 -1,1.78233 -1,2.849 v 1.8 c 0,1.06667 0.32,2.02667 0.96,2.88 l 1.08,1.44 c 0.64,0.85333 1.422667,1.54533 2.348,2.076 L 208,290 215.31499,294.19324 243,273 l 1,-75 -50,-51 23,-23 37,37 z"
        />
        <path
          d="m 456.32,195.56 c -0.21333,-1.70667 -1.06467,-2.99 -2.554,-3.85 L 303.69606,104.44194 266,198 v 93.25 l -0.63026,4.2227 -50.05475,-1.27946 L 253,315 h 8 L 451.429,205.9 c 1.04733,-0.6 1.99767,-1.32667 2.851,-2.18 l 1.44,-1.44 c 0.85333,-0.85333 1.205,-1.87867 1.055,-3.076 z"
        />
        <path
          d="m 457,287.6 c 0,-1.06667 -0.32,-2.02667 -0.96,-2.88 l -1.08,-1.44 c -0.64,-0.85333 -1.42433,-1.54233 -2.353,-2.067 L 408,256 h -3 l -139.215,80.392 c -1.85667,1.072 -3.85167,1.71467 -5.985,1.928 l -3.6,0.36 c -2.13333,0.21333 -4.144,-0.18833 -6.032,-1.205 l -63.43131,-34.03439 2.97506,66.53206 57.26925,33.18933 c 2.01267,1.22533 4.19233,1.94467 6.539,2.158 l 3.96,0.36 c 2.34667,0.21333 4.543,-0.26467 6.589,-1.434 L 447.438,299.464 c 1.708,-0.976 3.30867,-2.104 4.802,-3.384 l 3.302,-2.83 c 0.972,-0.83333 1.458,-1.89 1.458,-3.17 z"
        />
        <path
          d="m 457,378.24 c 0,-1.49333 -0.57367,-2.718 -1.721,-3.674 L 452.92,372.6 c -1.28,-1.06667 -2.64467,-2.01133 -4.094,-2.834 L 416.64,351.498 c -1.76,-0.99867 -3.6,-1.818 -5.52,-2.458 l -3.24,-1.08 c -1.92,-0.64 -3.758,-0.45667 -5.514,0.55 l -137.312,78.739 c -2.036,1.16733 -4.22733,1.751 -6.574,1.751 h -3.96 c -2.34667,0 -4.53367,-0.59133 -6.561,-1.774 L 189.83582,393.21318 172.81045,451.32026 251.06,495.881 c 1.29333,0.746 2.68667,1.119 4.18,1.119 h 2.52 c 1.49333,0 2.888,-0.37067 4.184,-1.112 L 452.822,386.674 c 0.78533,-0.44933 1.498,-0.994 2.138,-1.634 l 1.08,-1.08 c 0.64,-0.64 0.96,-1.41267 0.96,-2.318 z"
        />
        <path
          d="m 57.154,283.846 c -0.769333,0.76933 -1.260667,1.68733 -1.474,2.754 l -0.399,1.997 c -0.187333,0.93533 -0.06767,1.82967 0.359,2.683 l 0.72,1.44 c 0.426667,0.85333 1.054,1.517 1.882,1.991 L 195,373 195.07031,308.53125 110.112,256.634 C 109.37067,256.21133 108.57333,256 107.72,256 h -1.44 c -0.85333,0 -1.653,0.20733 -2.399,0.622 l -42.299,23.499 c -1.054667,0.586 -2.008667,1.30567 -2.862,2.159 z"
        />
        <path
          d="m 57.948,373.849 c -1.298667,0.76733 -2.054667,1.89767 -2.268,3.391 l -0.36,2.52 c -0.213333,1.49333 0.252667,2.731 1.398,3.713 l 3.042,2.607 c 1.493333,1.28 3.094,2.408 4.802,3.384 L 195,464 195.41984,396.35918 193,395 110.298,348.298 c -1.532,-0.86533 -3.15133,-1.08467 -4.858,-0.658 l -2.88,0.72 c -1.70667,0.42667 -3.317333,1.08733 -4.832,1.982 z"
        />
      </g>
      <g fill="#b6ff3c">
        <path
          d="m 368,33 -114,128 -37,-37 -23,23 50,51 -1,75 -47.90983,34.92271 L 195,464 225.86864,481.53528 226.05117,324.535 266,295 V 198 L 391,55 Z"
        />
      </g>
    </g>
  </g>
  <line x1="500" y1="96" x2="500" y2="534" stroke="#1d1f25" stroke-width="2" />
  <text
    x="540"
    y="268"
    fill="#f5f6f7"
    font-family="ui-sans-serif, system-ui, -apple-system, Segoe UI, Roboto, Helvetica Neue, Arial, sans-serif"
    font-size="64"
    font-weight="700"
    letter-spacing="-0.03em"
  >
    UseStakly
  </text>
  <text
    x="540"
    y="338"
    fill="#b6ff3c"
    font-family="ui-sans-serif, system-ui, -apple-system, Segoe UI, Roboto, Helvetica Neue, Arial, sans-serif"
    font-size="30"
    font-weight="600"
    letter-spacing="-0.02em"
  >
    The open-source observatory
  </text>
  <text
    fill="#a7a9b0"
    font-family="ui-sans-serif, system-ui, -apple-system, Segoe UI, Roboto, Helvetica Neue, Arial, sans-serif"
    font-size="22"
    font-weight="400"
  >
    <tspan x="540" y="392">Transparent quality scores | MCP signals</tspan>
    <tspan x="540" dy="34">Public GitHub metadata</tspan>
  </text>
  <text
    x="540"
    y="528"
    fill="#6b6e77"
    font-family="ui-monospace, SFMono-Regular, Cascadia Code, Menlo, monospace"
    font-size="15"
    font-weight="500"
    letter-spacing="0.12em"
  >
    PUBLIC BETA | FORMULA_V1
  </text>
</svg>
